<svg width="1000" height="1000" viewBox="0 0 1000 1000" fill="none" xmlns="http://www.w3.org/2000/svg">
<rect width="1000" height="1000" fill="white"/>
<path d="M449 524.5V629.5C449 648.5 450.5 662.25 453.5 670.75C456.5 679.25 462 685 470 688C478.5 691 491.75 693 509.75 694V709C486.75 707.5 455 706.75 414.5 706.75C371.5 706.75 339.5 707.5 318.5 709V694C336.5 693 349.5 691 357.5 688C366 685 371.75 679.25 374.75 670.75C377.75 662.25 379.25 648.5 379.25 629.5V332.5C379.25 313.5 377.75 299.75 374.75 291.25C371.75 282.75 366 277 357.5 274C349.5 271 336.5 269 318.5 268V253C339.5 254.5 370 255.25 410 255.25L491 254.5C500.5 254 511.25 253.75 523.25 253.75C576.75 253.75 617.75 265.25 646.25 288.25C674.75 310.75 689 341 689 379C689 403 683 426 671 448C659.5 470 639.5 488.25 611 502.75C583 517.25 545.75 524.5 499.25 524.5H449ZM504.5 268C489 268 477.25 269.75 469.25 273.25C461.75 276.75 456.5 283 453.5 292C450.5 301 449 314.5 449 332.5V509.5H491.75C537.75 509.5 569.5 498.5 587 476.5C605 454.5 614 424.75 614 387.25C614 346.75 605.5 316.75 588.5 297.25C571.5 277.75 543.5 268 504.5 268Z" fill="#2A265B"/>
<path d="M448 504L703 396.5V608H448V504Z" fill="white"/>
<path d="M417.656 521.919L716.5 407.5L651 481L417.656 521.919Z" fill="url(#paint0_linear_23_4)"/>
<defs>
<linearGradient id="paint0_linear_23_4" x1="427.234" y1="545.954" x2="715.713" y2="430.993" gradientUnits="userSpaceOnUse">
<stop stop-color="#63450B"/>
<stop offset="0.326923" stop-color="#DF9100"/>
</linearGradient>
</defs>
</svg>
